<svg xmlns="http://www.w3.org/2000/svg" width="45.77" height="45.77" viewBox="0 0 45.77 45.77">
  <g id="Group_101" data-name="Group 101" transform="translate(-1702.998 -75.807)">
    <g id="Group_79" data-name="Group 79" transform="translate(1703.498 76.307)">
      <ellipse id="Ellipse_19" data-name="Ellipse 19" cx="22.385" cy="22.385" rx="22.385" ry="22.385" fill="#e7f0eb" stroke="#4d9d74" stroke-width="1"/>
    </g>
    <ellipse id="Ellipse_25" data-name="Ellipse 25" cx="8.089" cy="8.089" rx="8.089" ry="8.089" transform="translate(1717.793 85.531)" fill="#080f28"/>
    <path id="Path_155" data-name="Path 155" d="M155.415,669.168h0a1.681,1.681,0,0,0,.191-.172,16.932,16.932,0,0,1,1.729-1.346,13.4,13.4,0,0,1,2.352-1.33,12.626,12.626,0,0,1,2.88-.843,14.594,14.594,0,0,1,3.109-.223,14.421,14.421,0,0,1,3.318.5,14.628,14.628,0,0,1,2.989,1.218,16.617,16.617,0,0,1,2.471,1.655c.2.162.381.308.521.428q.058.055.121.1l0,0h0a1.635,1.635,0,0,0,1.006.346,1.678,1.678,0,0,0,1.662-1.694,1.7,1.7,0,0,0-.546-1.255h0a17.519,17.519,0,0,0-3.413-2.477,18.206,18.206,0,0,0-5.487-1.929,17.97,17.97,0,0,0-3.9-.3,17.3,17.3,0,0,0-6.569,1.673,16.444,16.444,0,0,0-2.956,1.693,15.451,15.451,0,0,0-1.593,1.338,1.7,1.7,0,0,0-.549,1.258,1.678,1.678,0,0,0,1.662,1.694A1.635,1.635,0,0,0,155.415,669.168Z" transform="translate(1560.622 -557.656)" fill="#080f28"/>
  </g>
</svg>
