<svg xmlns="http://www.w3.org/2000/svg" width="213" height="213" viewBox="0 0 213 213">
  <g id="Group_100" data-name="Group 100" transform="translate(-13575.497 509.015)">
    <g id="Group_99" data-name="Group 99" transform="translate(13575.497 -509.015)">
      <circle id="Ellipse_19" data-name="Ellipse 19" cx="106.5" cy="106.5" r="106.5" fill="#4d9d74"/>
    </g>
    <circle id="Ellipse_27" data-name="Ellipse 27" cx="38.486" cy="38.486" r="38.486" transform="translate(13643.512 -463.487)" fill="#080f28"/>
    <path id="Path_169" data-name="Path 169" d="M165.42,696.7h0l.005,0a7.981,7.981,0,0,0,.907-.818,80.544,80.544,0,0,1,8.227-6.4,63.765,63.765,0,0,1,11.188-6.327,60.083,60.083,0,0,1,13.7-4.009,69.46,69.46,0,0,1,14.791-1.062,68.6,68.6,0,0,1,15.787,2.366,69.6,69.6,0,0,1,14.223,5.8,79.081,79.081,0,0,1,11.757,7.873c.974.771,1.811,1.467,2.479,2.036q.276.261.577.5l.013.012h0a7.779,7.779,0,0,0,4.787,1.645,7.985,7.985,0,0,0,7.909-8.058,8.106,8.106,0,0,0-2.6-5.97h0a83.355,83.355,0,0,0-16.236-11.785,86.625,86.625,0,0,0-26.107-9.178,85.488,85.488,0,0,0-18.569-1.4,82.293,82.293,0,0,0-31.255,7.961,78.237,78.237,0,0,0-14.065,8.055,73.533,73.533,0,0,0-7.58,6.365,8.1,8.1,0,0,0-2.612,5.984,7.985,7.985,0,0,0,7.909,8.058A7.781,7.781,0,0,0,165.42,696.7Z" transform="translate(13469.735 -1028.222)" fill="#080f28"/>
    <g id="Ellipse_28" data-name="Ellipse 28" transform="translate(13723 -505)" fill="#e4e4e4" stroke="#707070" stroke-width="1">
      <circle cx="24" cy="24" r="24" stroke="none"/>
      <circle cx="24" cy="24" r="23.5" fill="none"/>
    </g>
  </g>
</svg>
