<svg id="Group_26" data-name="Group 26" xmlns="http://www.w3.org/2000/svg" width="165.429" height="66.551" viewBox="0 0 165.429 66.551">
  <path id="Path_66" data-name="Path 66" d="M687.65,1018.83v20.446a16.43,16.43,0,0,1-32.859,0V1018.83a4.016,4.016,0,0,1,8.032,0v20.283a8.4,8.4,0,1,0,16.8,0V1018.83a4.016,4.016,0,0,1,8.032,0Z" transform="translate(-613.092 -1006.258)" fill="#080f28"/>
  <path id="Path_67" data-name="Path 67" d="M728.336,1035.148a20.365,20.365,0,1,1,20.365,20.365A20.378,20.378,0,0,1,728.336,1035.148Zm8.033,0a12.332,12.332,0,1,0,12.332-12.333A12.378,12.378,0,0,0,736.369,1035.148Z" transform="translate(-603.638 -1006.267)" fill="#080f28"/>
  <path id="Path_68" data-name="Path 68" d="M728.544,1021.861c-.67,2.169-2.747,1.728-4.015,4.015-.726,1.309-.73,2.823-.74,5.85-.007,2.359.266,3.041.072,3.1-.642.2-5.3-6.789-3.348-12.968.279-.884,1.174-3.72,3.554-4.445a3.837,3.837,0,0,1,3.843.814A4.01,4.01,0,0,1,728.544,1021.861Z" transform="translate(-604.705 -1005.952)" fill="#080f28"/>
  <circle id="Ellipse_21" data-name="Ellipse 21" cx="3.524" cy="3.524" r="3.524" transform="translate(117.241 11.172)" fill="#080f28"/>
  <path id="Path_69" data-name="Path 69" d="M652.8,1018.83v20.446a16.43,16.43,0,0,1-32.859,0V1018.83a4.016,4.016,0,0,1,8.032,0v20.283a8.4,8.4,0,1,0,16.8,0V1018.83a4.016,4.016,0,0,1,8.032,0Z" transform="translate(-617.573 -1006.258)" fill="#080f28"/>
  <path id="Path_70" data-name="Path 70" d="M655.43,1055.073a4.016,4.016,0,0,0-4.057-4.057,4.158,4.158,0,0,0-3.805,2.582,14.491,14.491,0,0,1-3.045,3.68,12.683,12.683,0,0,1-5.157,2.557,12.184,12.184,0,0,1-6.354-.24,12.479,12.479,0,0,1-5.141-3.22,13.571,13.571,0,0,1-1.326-1.529,6.271,6.271,0,0,1-.367-.517,5.012,5.012,0,0,1-.359-.691c-.033-.088-.067-.176-.1-.262l-.017-.043h0a4.114,4.114,0,1,0-6.805,4.461,20.119,20.119,0,0,0,1.212,1.9,20.782,20.782,0,0,0,7.345,6.3,20.342,20.342,0,0,0,9.212,2.174,20.747,20.747,0,0,0,11.728-3.745,20.986,20.986,0,0,0,6.253-6.926l-.017-.01A4.114,4.114,0,0,0,655.43,1055.073Z" transform="translate(-617.842 -1001.618)" fill="#080f28"/>
  <path id="Path_71" data-name="Path 71" d="M687.915,1035.148a20.365,20.365,0,1,1,20.365,20.365A20.378,20.378,0,0,1,687.915,1035.148Zm8.032,0a12.333,12.333,0,1,0,12.333-12.333A12.379,12.379,0,0,0,695.947,1035.148Z" transform="translate(-608.834 -1006.267)" fill="#080f28"/>
  <path id="Path_72" data-name="Path 72" d="M726.894,1055.073a4.016,4.016,0,0,0-4.057-4.057,4.158,4.158,0,0,0-3.805,2.582c-.191.328-.442.736-.77,1.191a14.248,14.248,0,0,1-2.275,2.49,12.682,12.682,0,0,1-5.158,2.557,12.184,12.184,0,0,1-6.354-.24,12.48,12.48,0,0,1-5.141-3.22,13.563,13.563,0,0,1-1.326-1.529c-.1-.137-.228-.295-.367-.517a5.136,5.136,0,0,1-.359-.691c-.033-.088-.067-.176-.1-.262l-.017-.043h0a4.114,4.114,0,1,0-6.805,4.461,20.13,20.13,0,0,0,1.212,1.9,20.784,20.784,0,0,0,7.345,6.3,20.342,20.342,0,0,0,9.212,2.174,20.746,20.746,0,0,0,11.728-3.745,20.985,20.985,0,0,0,6.253-6.926l-.017-.01A4.114,4.114,0,0,0,726.894,1055.073Z" transform="translate(-608.655 -1001.618)" fill="#080f28"/>
  <rect id="Rectangle_38" data-name="Rectangle 38" width="32.86" height="6.12" rx="1.429" transform="translate(41.698)" fill="#080f28"/>
</svg>
