<?xml version="1.0" encoding="utf-8"?>
<!-- Svg Vector Icons : http://www.onlinewebfonts.com/icon -->
<!DOCTYPE svg PUBLIC "-//W3C//DTD SVG 1.1//EN" "http://www.w3.org/Graphics/SVG/1.1/DTD/svg11.dtd">
<svg version="1.1" xmlns="http://www.w3.org/2000/svg" xmlns:xlink="http://www.w3.org/1999/xlink" x="0px" y="0px" viewBox="0 0 1000 1000" enable-background="new 0 0 1000 1000" xml:space="preserve">
<metadata> Svg Vector Icons : http://www.onlinewebfonts.com/icon </metadata>
<g><g transform="translate(0.000000,512.000000) scale(0.100000,-0.100000)"><path d="M7330,4990.8c-185.7-44-375.2-153.1-513-292.9c-212.5-216.3-312-457.5-312-758.1c0-306.3,101.5-551.3,319.7-765.7c222.1-220.2,453.7-315.9,760-315.9c302.5,0,543.7,101.5,754.3,314c147.4,147.4,241.2,304.4,287.2,480.5c36.4,143.6,36.4,426.9,0,564.7C8478.6,4774.5,7889,5126.7,7330,4990.8z"/><path d="M7037.1,2429.4c-197.2-30.6-323.5-72.7-451.8-151.2c-95.7-59.3-1265.4-974.4-1380.3-1081.6l-53.6-49.8V371.5c0-459.4,9.6-811.7,21.1-863.4c9.6-47.9,40.2-116.8,65.1-155.1l45.9-70.8l-932.3-851.9L3419-2421.5l-28.7,107.2c-44,157-63.2,185.7-296.7,444.1c-361.8,402-448,459.4-691.1,459.4c-206.7,0-258.4-40.2-1185-890.2c-949.5-871-938-855.7-938-1119.9c0-111,11.5-164.6,45.9-235.5c63.2-132.1,599.2-721.7,654.7-721.7c9.6,0,17.2,24.9,17.2,53.6c0,78.5,53.6,247,105.3,327.4c231.6,369.5,775.3,382.9,1033.7,26.8c30.6-44,63.2-80.4,70.8-80.4c5.7-1.9,790.6,712.1,1742.1,1583.2c953.3,871,1759.3,1606.1,1793.7,1631c298.6,229.7,289.1,193.3,289.1,957.2v622.2l153.1,120.6c84.2,65.1,157,118.7,162.7,118.7c5.7,0,9.6-515,9.6-1146.7v-1144.8L6011-2743.1c-373.3-1550.6-369.5-1533.4-289.1-1717.2c21.1-47.9,74.7-120.6,118.7-164.6c268-258.4,717.9-174.2,865.3,164.6c26.8,61.3,193.3,719.8,371.4,1464.5c178,744.7,327.4,1355.4,333.1,1355.4s160.8-626,344.6-1391.7c369.5-1539.1,367.6-1529.5,541.8-1646.3c120.6-80.4,225.9-109.1,361.8-95.7c260.3,23,465.2,229.7,488.2,490.1c7.7,91.9-40.2,313.9-336.9,1546.8l-346.5,1439.6V153.3c0,1242.4-3.8,1468.3-28.7,1565.9c-93.8,356.1-386.7,627.9-765.7,708.3C7508,2460,7247.7,2462,7037.1,2429.4z"/><path d="M8846.2-5.6v-612.6l101.5-88c139.7-120.6,202.9-149.3,333.1-149.3c141.6,1.9,246.9,47.9,335,153.1c116.8,135.9,137.9,315.9,53.6,478.6c-30.6,57.4-415.4,449.9-731.3,746.6l-91.9,84.2V-5.6z"/><path d="M1456.8-3939.6c-151.2-68.9-239.3-183.8-260.3-348.4c-34.5-247,179.9-492,432.6-492c99.5,0,256.5,67,319.7,135.9c162.7,178,157,440.3-13.4,610.7C1801.4-3897.5,1623.4-3863,1456.8-3939.6z"/></g></g>
</svg>