<?xml version="1.0" encoding="utf-8"?>
<svg viewBox="0 0 1024 1024" style="width: 1em; height: 1em;vertical-align: middle;fill: currentColor;overflow: hidden;" xmlns="http://www.w3.org/2000/svg">
  <ellipse style="stroke: rgb(0, 0, 0); fill: rgb(77, 157, 116); stroke-opacity: 0; stroke-width: 0px;" cx="512" cy="512" rx="462.073" ry="462.073"/>
  <path d="M 741.775 394.161 L 520.428 279.412 C 515.993 277.406 510.91 277.406 506.476 279.412 L 285.284 394.161 C 281.422 396.18 279.887 400.922 281.836 404.821 L 292.183 425.67 C 294.508 429.781 298.756 432.435 303.469 432.725 L 723.435 432.725 C 728.148 432.435 732.395 429.781 734.721 425.67 L 745.067 404.821 C 747.04 400.963 745.581 396.235 741.775 394.161 Z M 344.227 463.921 L 325.416 652.035 L 419.473 652.035 L 400.661 463.921 L 344.227 463.921 Z M 485.313 463.921 L 466.502 652.035 L 560.558 652.035 L 541.748 463.921 L 485.313 463.921 Z M 626.399 463.921 L 607.587 652.035 L 701.645 652.035 L 682.833 463.921 L 626.399 463.921 Z M 705.876 683.387 L 305.507 683.387 C 268.824 683.387 268.982 746.092 305.507 746.092 L 705.876 746.092 C 742.559 746.092 742.403 683.387 705.876 683.387 Z" style="fill: rgb(255, 255, 255);"/>
</svg>