<svg xmlns="http://www.w3.org/2000/svg" width="176.486" height="70.999" viewBox="0 0 176.486 70.999">
  <g id="Group_1" data-name="Group 1" transform="translate(-53.507 -54.294)">
    <path id="Path_1" data-name="Path 1" d="M133.049,67.706V89.519a17.528,17.528,0,0,1-35.056,0V67.706a4.285,4.285,0,0,1,8.569,0v21.64a8.959,8.959,0,1,0,17.918,0V67.706a4.285,4.285,0,0,1,8.569,0Z" fill="#080f28"/>
    <path id="Path_2" data-name="Path 2" d="M186.54,85.105a21.727,21.727,0,1,1,21.727,21.726A21.74,21.74,0,0,1,186.54,85.105Zm8.57,0a13.157,13.157,0,1,0,13.157-13.157A13.206,13.206,0,0,0,195.11,85.105Z" fill="#080f28"/>
    <path id="Path_3" data-name="Path 3" d="M185.625,71.265c-.716,2.315-2.932,1.843-4.285,4.285-.774,1.4-.779,3.011-.789,6.241-.008,2.516.283,3.243.077,3.309-.686.218-5.654-7.243-3.573-13.835.3-.942,1.252-3.968,3.792-4.742a4.1,4.1,0,0,1,4.1.867A4.279,4.279,0,0,1,185.625,71.265Z" fill="#080f28"/>
    <circle id="Ellipse_1" data-name="Ellipse 1" cx="3.759" cy="3.759" r="3.759" transform="translate(178.584 66.213)" fill="#080f28"/>
    <path id="Path_4" data-name="Path 4" d="M91.085,67.706V89.519a17.528,17.528,0,0,1-35.056,0V67.706a4.285,4.285,0,0,1,8.57,0v21.64a8.959,8.959,0,1,0,17.917,0V67.706a4.285,4.285,0,0,1,8.569,0Z" fill="#080f28"/>
    <path id="Path_5" data-name="Path 5" d="M93.607,111.323a4.285,4.285,0,0,0-4.329-4.329,4.438,4.438,0,0,0-4.06,2.754c-.2.351-.472.786-.821,1.271a15.24,15.24,0,0,1-2.426,2.656,13.53,13.53,0,0,1-5.5,2.728,12.992,12.992,0,0,1-6.778-.257,13.332,13.332,0,0,1-5.485-3.434,14.643,14.643,0,0,1-1.414-1.632c-.109-.146-.244-.314-.391-.551a5.5,5.5,0,0,1-.383-.737c-.035-.1-.071-.188-.112-.279l-.018-.047,0,0a4.389,4.389,0,1,0-7.26,4.759,21.355,21.355,0,0,0,1.293,2.024,22.181,22.181,0,0,0,7.836,6.724,21.712,21.712,0,0,0,9.828,2.318A22.14,22.14,0,0,0,86.092,121.3a22.389,22.389,0,0,0,6.671-7.39l-.018-.01A4.392,4.392,0,0,0,93.607,111.323Z" fill="#080f28"/>
    <path id="Path_6" data-name="Path 6" d="M137.874,85.105A21.726,21.726,0,1,1,159.6,106.831,21.74,21.74,0,0,1,137.874,85.105Zm8.569,0A13.157,13.157,0,1,0,159.6,71.948,13.207,13.207,0,0,0,146.443,85.105Z" fill="#080f28"/>
    <path id="Path_7" data-name="Path 7" d="M179.65,111.323a4.285,4.285,0,0,0-4.329-4.329,4.438,4.438,0,0,0-4.06,2.754c-.2.351-.472.786-.821,1.271a15.24,15.24,0,0,1-2.426,2.656,13.531,13.531,0,0,1-5.5,2.728,12.992,12.992,0,0,1-6.778-.257,13.332,13.332,0,0,1-5.485-3.434,14.643,14.643,0,0,1-1.414-1.632c-.109-.146-.244-.314-.391-.551a5.5,5.5,0,0,1-.383-.737c-.035-.1-.071-.188-.112-.279l-.018-.047,0,0a4.389,4.389,0,1,0-7.26,4.759,21.356,21.356,0,0,0,1.293,2.024,22.181,22.181,0,0,0,7.836,6.724,21.712,21.712,0,0,0,9.828,2.318,22.14,22.14,0,0,0,12.512-3.994,22.389,22.389,0,0,0,6.671-7.39l-.018-.01A4.391,4.391,0,0,0,179.65,111.323Z" fill="#080f28"/>
    <rect id="Rectangle_1" data-name="Rectangle 1" width="35.056" height="6.529" rx="1.429" transform="translate(97.993 54.294)" fill="#080f28"/>
  </g>
</svg>
