<svg id="Group_27" data-name="Group 27" xmlns="http://www.w3.org/2000/svg" width="110" height="77.894" viewBox="0 0 193.625 77.894">
  <path id="Path_1" data-name="Path 1" d="M136.453,68.118V92.049a19.231,19.231,0,0,1-38.46,0V68.118a4.7,4.7,0,0,1,9.4,0V91.859a9.829,9.829,0,1,0,19.658,0V68.118a4.7,4.7,0,0,1,9.4,0Z" transform="translate(-49.187 -53.403)" fill="#fff"/>
  <path id="Path_2" data-name="Path 2" d="M186.54,87.215a23.836,23.836,0,1,1,23.837,23.836A23.852,23.852,0,0,1,186.54,87.215Zm9.4,0A14.435,14.435,0,1,0,210.377,72.78,14.489,14.489,0,0,0,195.942,87.215Z" transform="translate(-40.588 -53.412)" fill="#fff"/>
  <path id="Path_3" data-name="Path 3" d="M186.506,71.745c-.786,2.54-3.217,2.022-4.7,4.7-.849,1.532-.855,3.3-.866,6.847-.009,2.76.31,3.558.084,3.63-.753.239-6.2-7.946-3.92-15.179.326-1.033,1.374-4.353,4.16-5.2a4.494,4.494,0,0,1,4.5.951C187.259,69.109,186.567,71.55,186.506,71.745Z" transform="translate(-41.558 -53.126)" fill="#fff"/>
  <circle id="Ellipse_1" data-name="Ellipse 1" cx="4.125" cy="4.125" r="4.125" transform="translate(137.224 13.076)" fill="#fff"/>
  <path id="Path_4" data-name="Path 4" d="M94.489,68.118V92.049a19.231,19.231,0,0,1-38.46,0V68.118a4.7,4.7,0,0,1,9.4,0V91.859a9.829,9.829,0,1,0,19.657,0V68.118a4.7,4.7,0,0,1,9.4,0Z" transform="translate(-53.262 -53.403)" fill="#fff"/>
  <path id="Path_5" data-name="Path 5" d="M97.5,111.751A4.7,4.7,0,0,0,92.752,107a4.869,4.869,0,0,0-4.454,3.021c-.223.385-.518.862-.9,1.394a16.72,16.72,0,0,1-2.662,2.914,14.844,14.844,0,0,1-6.037,2.993,14.254,14.254,0,0,1-7.436-.282,14.626,14.626,0,0,1-6.018-3.767,16.066,16.066,0,0,1-1.551-1.79c-.12-.16-.268-.344-.429-.6a6.033,6.033,0,0,1-.42-.809c-.038-.1-.078-.206-.123-.306l-.02-.052,0,0a4.815,4.815,0,1,0-7.965,5.221,23.429,23.429,0,0,0,1.419,2.221,24.335,24.335,0,0,0,8.6,7.377,23.821,23.821,0,0,0,10.782,2.543A24.29,24.29,0,0,0,89.256,122.7a24.563,24.563,0,0,0,7.319-8.108l-.02-.011A4.818,4.818,0,0,0,97.5,111.751Z" transform="translate(-53.507 -49.184)" fill="#fff"/>
  <path id="Path_6" data-name="Path 6" d="M137.874,87.215a23.836,23.836,0,1,1,23.836,23.836A23.851,23.851,0,0,1,137.874,87.215Zm9.4,0A14.435,14.435,0,1,0,161.71,72.78,14.49,14.49,0,0,0,147.275,87.215Z" transform="translate(-45.314 -53.412)" fill="#fff"/>
  <path id="Path_7" data-name="Path 7" d="M183.544,111.751A4.7,4.7,0,0,0,178.795,107a4.869,4.869,0,0,0-4.454,3.021c-.223.385-.518.862-.9,1.394a16.719,16.719,0,0,1-2.662,2.914,14.845,14.845,0,0,1-6.037,2.993,14.254,14.254,0,0,1-7.436-.282,14.626,14.626,0,0,1-6.018-3.767,16.063,16.063,0,0,1-1.551-1.79c-.12-.16-.268-.344-.429-.6a6.033,6.033,0,0,1-.42-.809c-.038-.1-.078-.206-.123-.306l-.02-.052,0,0a4.815,4.815,0,1,0-7.965,5.221,23.435,23.435,0,0,0,1.419,2.221,24.335,24.335,0,0,0,8.6,7.377,23.821,23.821,0,0,0,10.782,2.543A24.29,24.29,0,0,0,175.3,122.7a24.563,24.563,0,0,0,7.319-8.108l-.02-.011A4.818,4.818,0,0,0,183.544,111.751Z" transform="translate(-45.151 -49.184)" fill="#fff"/>
  <rect id="Rectangle_1" data-name="Rectangle 1" width="38.46" height="7.163" rx="1.429" transform="translate(48.806 0)" fill="#fff"/>
</svg>
