<svg xmlns="http://www.w3.org/2000/svg" width="470.378" height="151.743"><g data-name="Group 20"><path d="M0 0h470.378v90.54H0V0" fill="#1c3d4e" fill-rule="evenodd" data-name="Rectangle 20"/><path d="M27.319 14.884h415.74v50.372H27.319V14.884" fill="#19323c" fill-rule="evenodd" data-name="Rectangle 21"/><g data-name="Rectangle 22"><path d="M38.55 28.337h392.278v123.406H38.55V28.337" fill="#8fc09c" fill-rule="evenodd"/><path d="M38.55 28.337h392.278v123.406h0H38.55h0V28.337h0" stroke-linejoin="round" stroke-linecap="round" stroke="#1f3e4d" fill="transparent"/></g><path d="M48.135 14.384h374.428v127.501h0H48.135h0V14.384h0" stroke-linejoin="round" stroke-linecap="round" stroke="#19323c" fill="transparent" data-name="Rectangle 23"/><path d="M305.913 72.204a67.073 67.073 0 0 0 1.959-13.835c.36-11.34-2.627-20.9-5.591-27.655a74.868 74.868 0 0 0-.855-1.877 29431424855.753 29431424855.753 0 0 1-88.472.072l-44.237.036c-3.123 6.78-6.645 17.042-6.202 29.424 1.138 31.774 28.22 72.678 72.678 72.678a71.885 71.885 0 0 0 2.068-.03c37.02-1.065 61.722-30.637 68.652-58.813Z" fill="#598165" fill-rule="evenodd" data-name="Path 28"/><g data-name="Group 19"><path d="M228.29 100.273v-1.885a29.396 29.396 0 0 1-7.023-2.111 29.57 29.57 0 0 1-4.726-2.654c-3.46-2.477-5.526-5.105-6.713-6.943a23.175 23.175 0 0 1-.63-1.036 6 6 0 0 1-.794-1.964 5.095 5.095 0 0 1-.11-.997 4.403 4.403 0 0 1 0-.03c0-3.104 2.598-5.542 5.65-5.542a5.37 5.37 0 0 1 5.082 3.435 27.81 27.81 0 0 0 .306.444 16.24 16.24 0 0 0 3.873 3.879 16.902 16.902 0 0 0 3.433 1.774 20.215 20.215 0 0 0 1.652.553v-21.5a45.388 45.388 0 0 1-2.052-.43c-2.675-.628-5.35-1.558-7.885-3.141a21.282 21.282 0 0 1-3.846-3.078c-3.372-3.447-5.433-7.664-5.939-12.146a16.167 16.167 0 0 1-.017-.163c-.103-1.008-.33-4.252.875-8.194a21.832 21.832 0 0 1 1.062-2.78 22.637 22.637 0 0 1 4.908-6.845 23.074 23.074 0 0 1 .012-.011 966968.187 966968.187 0 0 0 25.155-.151 1971993.964 1971993.964 0 0 1 12.578-.076c3.684 4.097 6.274 7.226 6.778 8.09a4.351 4.351 0 0 1 .013.023c.282.489.438.977.467 1.07a1.338 1.338 0 0 1 .005.016 4.743 4.743 0 0 1 .172.936 5.919 5.919 0 0 1 .02.505 5.49 5.49 0 0 1-5.534 5.428 5.536 5.536 0 0 1-5.198-3.324h-.112c0-.11-.773-1.95-3.185-3.917a15.588 15.588 0 0 0-.09-.072 15.127 15.127 0 0 0-.687-.488c-1.48-.99-3.609-2.062-6.318-2.726v21.943a40.327 40.327 0 0 1 3.16.625c3.153.764 6.305 2.01 9.267 4.251a23.422 23.422 0 0 1 7.375 9.76c.345.87.626 1.751.839 2.632a16.616 16.616 0 0 1 .484 3.9c0 2.992-1.582 9.972-7.004 15.181a20.224 20.224 0 0 1-1.025.938c-2.718 2.323-7.032 4.808-13.096 5.49v1.33a5.513 5.513 0 0 1-2.443 4.607 5.533 5.533 0 0 1-3.092.935 5.682 5.682 0 0 1-4.045-1.643 5.472 5.472 0 0 1-1.602-3.898Zm11.182-33.025v20.613a14.477 14.477 0 0 0 2.5-.701c6.621-2.54 7.376-9.013 7.436-9.758a1.404 1.404 0 0 0 .004-.069 6.547 6.547 0 0 0-.226-1.65c-.35-1.34-1.091-2.73-2.1-3.971a12.538 12.538 0 0 0-2.078-2.027 13.937 13.937 0 0 0-4.592-2.168 37.357 37.357 0 0 0-.944-.269ZM228.29 54.502V34c-3.954 1.108-7.117 4.1-8.248 7.87a8.675 8.675 0 0 0-.273 1.004c-.426 2.032-.33 5.098 2.337 8.076a12.567 12.567 0 0 0 .423.45 11.727 11.727 0 0 0 4.688 2.773 21.16 21.16 0 0 0 1.073.329Z" fill="#6ea380" fill-rule="evenodd" data-name="Path 29"/></g></g></svg>