<svg xmlns="http://www.w3.org/2000/svg" width="411.903" height="310.868" viewBox="10.13 8.613 411.903 310.868"><g data-name="Group 11"><path d="m77.348 142.645 74.252-10.709 61.746 10.709 70.344-10.709 75.034 14.85 63.31 167.263-107.861-18.758-96.481 18.758-95.793-21.103L10.13 314.049l67.218-171.404Z" fill="#1c233c" fill-rule="evenodd" data-name="Path 19"/><path d="m150.1 130.436-29.7 167.139" stroke-linejoin="round" stroke-linecap="round" stroke-width="3" stroke="#fff" fill="transparent" data-name="Line 4"/><path d="M216.191 319.481a2396715.976 2396715.976 0 0 0-1.631-89.48l-.042-2.294" stroke-linejoin="round" stroke-linecap="round" stroke-width="3" stroke="#fff" fill="transparent" data-name="Path 20"/><path d="m282.19 130.436 30.482 169.573" stroke-linejoin="round" stroke-linecap="round" stroke-width="3" stroke="#fff" fill="transparent" data-name="Path 21"/><path d="m137.193 109.153-.02-.003a8.28 8.28 0 0 1 .026.072 6.864 6.864 0 0 1 .027.071 80.365 80.365 0 0 0 8.199 20.669 359.75 359.75 0 0 0 14.131 29.018 361.391 361.391 0 0 0 15.005 25.114 362.429 362.429 0 0 0 .62.945l21.319 33.618a1581790.309 1581790.309 0 0 1 20.772 32.756 2302.707 2302.707 0 0 1 14.03-22.125c14.7-22.892 21.048-31.887 27.52-42.09a403.172 403.172 0 0 0 6.106-9.94c6.557-11.025 14.35-25.312 22.343-42.865l-.022-.004a80.337 80.337 0 0 0 13.148-40.963 81.51 81.51 0 0 0 .064-3.23c0-45.058-37.058-81.584-82.769-81.584-45.713 0-82.77 36.526-82.77 81.584a80.622 80.622 0 0 0 2.27 18.957Zm39.193-19.779a41.305 41.305 0 0 0 41.305 41.305c22.813 0 41.306-18.493 41.306-41.305 0-22.813-18.493-41.306-41.306-41.306a41.306 41.306 0 0 0-41.305 41.306Z" fill="#4f9d74" fill-rule="evenodd" data-name="Path 22"/><g data-name="Group 10"><path d="m65.79 223.177-.008-.002.02.056a31.466 31.466 0 0 0 3.21 8.091 140.702 140.702 0 0 0 5.526 11.348 141.48 141.48 0 0 0 5.868 9.824 142.003 142.003 0 0 0 .253.386 648361.158 648361.158 0 0 0 9.414 14.845 781400.329 781400.329 0 0 1 7.06 11.134 873.032 873.032 0 0 1 5.493-8.66 836.352 836.352 0 0 1 1.86-2.885c4.39-6.777 6.595-9.95 8.8-13.414a159.673 159.673 0 0 0 .11-.175 157.924 157.924 0 0 0 2.39-3.89c2.567-4.317 5.618-9.91 8.747-16.78h-.01a31.448 31.448 0 0 0 5.143-15.96 31.897 31.897 0 0 0 .028-1.339 32.168 32.168 0 0 0-32.396-31.933A32.168 32.168 0 0 0 64.9 215.756a31.58 31.58 0 0 0 .889 7.421Zm31.508 8.425c-8.93 0-16.168-7.238-16.168-16.167a16.167 16.167 0 0 1 16.168-16.167 16.167 16.167 0 0 1 16.168 16.167 16.168 16.168 0 0 1-16.168 16.167Z" fill="#3d5f62" fill-rule="evenodd" data-name="Path 23"/><path d="M80.054 215.385a17.244 17.244 0 1 1 0 .1" fill="#1c233c" fill-rule="evenodd" data-name="Ellipse 17"/></g><path d="m303.958 203.433-.004-.001.012.035a19.644 19.644 0 0 0 2.005 5.052 88.112 88.112 0 0 0 7.272 13.461 67835.63 67835.63 0 0 1 5.075 8.003l.536.846a70957.617 70957.617 0 0 0 4.677 7.373c.59-.942 1.424-2.268 2.443-3.866a566.51 566.51 0 0 1 .986-1.54c3.54-5.514 5.098-7.729 6.656-10.178a99.524 99.524 0 0 0 .07-.11 103.75 103.75 0 0 0 5.591-10.021 114.21 114.21 0 0 0 1.362-2.886h-.005a19.64 19.64 0 0 0 3.212-9.966 19.904 19.904 0 0 0 .017-.836 20.087 20.087 0 0 0-20.23-19.94c-11.173 0-20.23 8.928-20.23 19.94 0 1.596.196 3.146.555 4.634Zm9.579-4.834a10.096 10.096 0 0 0 10.096 10.095 10.095 10.095 0 0 0 10.096-10.095 10.096 10.096 0 0 0-10.096-10.096 10.097 10.097 0 0 0-10.096 10.096Z" fill="#79a181" fill-rule="evenodd" data-name="Path 24"/></g></svg>