<svg xmlns="http://www.w3.org/2000/svg" width="25.136" height="25.135" viewBox="0 0 25.136 25.135">
  <g id="Group_98" data-name="Group 98" transform="translate(-3965 -1626.157)">
    <g id="Group_96" data-name="Group 96" transform="translate(3642.83 1302.667)">
      <path id="Path_152" data-name="Path 152" d="M1.337,0h9.037a1.337,1.337,0,0,1,1.337,1.337v9.037a1.337,1.337,0,0,1-1.337,1.337H1.337A1.337,1.337,0,0,1,0,10.374V1.337A1.337,1.337,0,0,1,1.337,0Z" transform="translate(328.912 330.479)" fill="#79a182"/>
      <path id="Path_145" data-name="Path 145" d="M334.738,323.49a12.568,12.568,0,1,0,12.568,12.567A12.567,12.567,0,0,0,334.738,323.49Zm7.885,17.364a3.341,3.341,0,0,1-3.337,3.336h-9.037a3.341,3.341,0,0,1-3.337-3.336v-9.038a3.341,3.341,0,0,1,3.337-3.337h9.037a3.341,3.341,0,0,1,3.337,3.337Z" fill="#79a182"/>
    </g>
    <g id="Group_97" data-name="Group 97" transform="translate(3642.83 1302.667)">
      <path id="Path_146" data-name="Path 146" d="M334.768,340.592a4.258,4.258,0,1,1,4.256-4.257A4.262,4.262,0,0,1,334.768,340.592Zm0-6.515a2.258,2.258,0,1,0,2.256,2.258A2.26,2.26,0,0,0,334.768,334.077Z" fill="#1b233c"/>
    </g>
  </g>
</svg>
