<svg xmlns="http://www.w3.org/2000/svg" xmlns:xlink="http://www.w3.org/1999/xlink" width="140.685" height="140.685" viewBox="0 0 140.685 140.685"><defs><filter id="a" x="0" y="0" width="140.685" height="140.685" filterUnits="userSpaceOnUse"><feOffset dx="7" dy="7" input="SourceAlpha"/><feGaussianBlur stdDeviation="2.5" result="b"/><feFlood flood-color="#030504" flood-opacity="0.749"/><feComposite operator="in" in2="b"/><feComposite in="SourceGraphic"/></filter></defs><g transform="translate(-468.819 -101.204)"><g transform="matrix(1, 0, 0, 1, 468.82, 101.2)" filter="url(#a)"><rect width="125.685" height="125.685" rx="34" transform="translate(0.5 0.5)" fill="#080f28"/></g><path d="M608.648,160.481V191.5a24.924,24.924,0,0,1-49.847,0V160.481a6.093,6.093,0,0,1,12.185,0v30.77a12.739,12.739,0,1,0,25.477,0v-30.77a6.093,6.093,0,0,1,12.184,0Z" transform="translate(-51.563 -30.394)" fill="#4d9d74"/><path d="M607.358,306.515a6.092,6.092,0,0,0-6.155-6.155,6.312,6.312,0,0,0-5.773,3.916,21.815,21.815,0,0,1-4.617,5.583,19.238,19.238,0,0,1-7.824,3.88,18.487,18.487,0,0,1-9.638-.366,18.94,18.94,0,0,1-7.8-4.883,20.737,20.737,0,0,1-2.012-2.321c-.154-.207-.346-.446-.556-.783a7.782,7.782,0,0,1-.545-1.049c-.05-.134-.1-.267-.159-.4-.008-.021-.018-.047-.025-.067l-.005,0a6.241,6.241,0,1,0-10.322,6.767,30.435,30.435,0,0,0,1.839,2.878,31.535,31.535,0,0,0,11.142,9.56,30.865,30.865,0,0,0,13.974,3.3,31.484,31.484,0,0,0,17.791-5.679,31.833,31.833,0,0,0,9.485-10.507l-.026-.015A6.243,6.243,0,0,0,607.358,306.515Z" transform="translate(-46.687 -114.411)" fill="#4d9d74"/></g></svg>