<svg xmlns="http://www.w3.org/2000/svg" width="400" height="500" viewBox="0 0 681.285 938.1"><g transform="translate(-48.667 -76.717)"><path d="M541.829,810.214h0l-.02.017a29.763,29.763,0,0,0-3.489,2.778,307.922,307.922,0,0,1-31.621,21.74c-10.143,6.087-23.666,14.115-43,21.478a254.942,254.942,0,0,1-52.661,13.607,301.571,301.571,0,0,1-56.852,3.607,295.856,295.856,0,0,1-60.679-8.034,289.158,289.158,0,0,1-54.665-19.674,308.921,308.921,0,0,1-45.19-26.723c-3.746-2.619-6.961-4.978-9.529-6.91q-1.062-.887-2.216-1.681l-.051-.039v0a32.5,32.5,0,0,0-18.4-5.584c-16.79,0-30.4,12.246-30.4,27.353a26.153,26.153,0,0,0,9.981,20.264h0a322.555,322.555,0,0,0,62.406,40c11.4,5.584,48.016,22.7,100.344,31.154a371.215,371.215,0,0,0,71.373,4.769c56.735-2.217,98.065-18.243,120.13-27.022,28.891-11.493,47.431-23.063,54.06-27.34a277.064,277.064,0,0,0,29.137-21.6,26.161,26.161,0,0,0,10.041-20.31c0-15.107-13.611-27.353-30.4-27.353A32.529,32.529,0,0,0,541.829,810.214Z" transform="translate(104.014 86.281)" fill="#4d9d74" opacity="0.2"/><path d="M254.2,76.732a9.922,9.922,0,0,0-1.776.065H82.194A36.145,36.145,0,0,0,58.878,87.255C47.952,98.342,48.665,112.5,48.814,114.73V275.956a14.445,14.445,0,0,0-.087,3.394c-.036.651-.06,1.306-.06,1.966,0,18.256,14.129,33.054,31.559,33.054,17.2,0,31.171-14.409,31.542-32.327a9.857,9.857,0,0,0,.017-1.516V164.186a20.884,20.884,0,0,1,19.488-22.572l121.892-1.82q.807.042,1.624.041a31.559,31.559,0,1,0,0-63.117C254.591,76.717,254.4,76.729,254.2,76.732Z" fill="#4d9d74" opacity="0.2"/><circle cx="114.436" cy="114.436" r="114.436" transform="translate(501.08 288.723)" fill="#4d9d74" opacity="0.2"/></g></svg>