<svg xmlns="http://www.w3.org/2000/svg" width="153.113" height="153.113" viewBox="0 0 153.113 153.113">
  <g id="Group_99" data-name="Group 99" transform="translate(-2284.992 -1814.894)">
    <circle id="Ellipse_27" data-name="Ellipse 27" cx="76.557" cy="76.557" r="76.557" transform="translate(2284.992 1814.894)" fill="#fff"/>
    <circle id="Ellipse_28" data-name="Ellipse 28" cx="21.534" cy="21.534" r="21.534" transform="translate(2340.015 1858.281)" fill="#080f28"/>
    <path id="Path_170" data-name="Path 170" d="M247.234,1434.465h0l0,0a4.766,4.766,0,0,0,.508-.522,46.685,46.685,0,0,1,4.6-4.086,34.914,34.914,0,0,1,6.26-4.036,30.489,30.489,0,0,1,7.666-2.557,34.465,34.465,0,0,1,17.109.832,36.212,36.212,0,0,1,7.958,3.7,44.46,44.46,0,0,1,6.578,5.022c.546.492,1.014.935,1.387,1.3.1.111.211.217.323.316l.008.007h0a4.022,4.022,0,0,0,2.678,1.049c2.444,0,4.426-2.3,4.426-5.141a5.53,5.53,0,0,0-1.453-3.808h0a47.3,47.3,0,0,0-9.085-7.518,44.885,44.885,0,0,0-14.607-5.854,39.115,39.115,0,0,0-27.878,4.182,41.349,41.349,0,0,0-12.111,9.2,5.528,5.528,0,0,0-1.461,3.817c0,2.839,1.981,5.141,4.425,5.141A4.026,4.026,0,0,0,247.234,1434.465Z" transform="translate(2088.105 489.12)" fill="#080f28"/>
  </g>
</svg>
